<svg width="10" height="19" viewBox="0 0 10 19" fill="none" xmlns="http://www.w3.org/2000/svg">
<path d="M8.2828 0.616976L0.509802 8.75869C0.373281 8.9017 0.296875 9.0935 0.296875 9.2932C0.296875 9.49291 0.373281 9.68471 0.509802 9.82771L8.2828 17.9725C8.3464 18.0392 8.42243 18.0922 8.50642 18.1284C8.5904 18.1646 8.68064 18.1832 8.7718 18.1832C8.86296 18.1832 8.9532 18.1646 9.03719 18.1284C9.12117 18.0922 9.19721 18.0392 9.2608 17.9725C9.39163 17.8357 9.46488 17.6521 9.46488 17.461C9.46488 17.2698 9.39163 17.0862 9.2608 16.9494L1.9513 9.2932L9.2608 1.63852C9.39118 1.50183 9.46415 1.31856 9.46415 1.12775C9.46415 0.936939 9.39118 0.75367 9.2608 0.616976C9.19721 0.550287 9.12117 0.497282 9.03719 0.461089C8.9532 0.424897 8.86296 0.40625 8.7718 0.40625C8.68064 0.40625 8.5904 0.424897 8.50642 0.461089C8.42243 0.497282 8.3464 0.550287 8.2828 0.616976Z" fill="white"/>
</svg>
