<svg width="11" height="7" viewBox="0 0 11 7" fill="none" xmlns="http://www.w3.org/2000/svg">
<path d="M0.187584 1.07325L5.17133 5.93137C5.25887 6.0167 5.37628 6.06445 5.49852 6.06445C5.62076 6.06445 5.73817 6.0167 5.82571 5.93137L10.8113 1.07325C10.8522 1.0335 10.8846 0.985981 10.9068 0.933489C10.9289 0.880998 10.9403 0.8246 10.9403 0.767624C10.9403 0.710649 10.9289 0.65425 10.9068 0.601758C10.8846 0.549266 10.8522 0.501745 10.8113 0.461999C10.7276 0.380228 10.6152 0.334449 10.4982 0.334449C10.3812 0.334449 10.2688 0.380228 10.1851 0.461999L5.49852 5.03044L0.812897 0.461999C0.729223 0.380508 0.617039 0.334907 0.500241 0.334907C0.383442 0.334907 0.271258 0.380508 0.187584 0.461999C0.146763 0.501745 0.114317 0.549266 0.0921623 0.601758C0.0700078 0.65425 0.0585938 0.710649 0.0585938 0.767624C0.0585938 0.8246 0.0700078 0.880998 0.0921623 0.933489C0.114317 0.985981 0.146763 1.0335 0.187584 1.07325Z" fill="#6F6F6F"/>
</svg>
