<svg width="25" height="23" viewBox="0 0 25 23" fill="none" xmlns="http://www.w3.org/2000/svg">
<path d="M13.2688 22.0443L22.9486 12.2731C24.2043 10.9914 24.9054 9.26712 24.9005 7.47277C24.8956 5.67843 24.185 3.95804 22.9222 2.68325C22.3027 2.05135 21.5638 1.54895 20.7484 1.20527C19.933 0.861581 19.0573 0.683476 18.1724 0.681313C17.2876 0.679149 16.4111 0.85297 15.594 1.19266C14.7769 1.53236 14.0355 2.03114 13.413 2.66L12.4892 3.59465L11.5514 2.64915C10.9328 2.01809 10.1949 1.51632 9.38058 1.17302C8.56628 0.829723 7.69186 0.651744 6.80817 0.649437C5.92447 0.647129 5.04913 0.820538 4.23306 1.15958C3.41698 1.49862 2.67646 1.99653 2.05455 2.62435C-0.56185 5.2671 -0.54945 9.56215 2.07935 12.2173L11.8087 22.0443C12.2117 22.452 12.8658 22.452 13.2688 22.0443ZM14.515 3.74965C14.9935 3.26664 15.5634 2.88368 16.1913 2.62308C16.8193 2.36249 17.4929 2.22947 18.1728 2.23178C18.8527 2.23409 19.5253 2.37168 20.1515 2.63653C20.7777 2.90138 21.3449 3.2882 21.8202 3.77445C22.7955 4.75923 23.3446 6.08788 23.3493 7.47387C23.3539 8.85987 22.8136 10.1922 21.845 11.1834V11.1866L12.5388 20.5795L3.17985 11.1261C1.1447 9.0708 1.14315 5.7476 3.1566 3.714C3.63449 3.23188 4.20352 2.84964 4.83056 2.58955C5.4576 2.32945 6.13011 2.1967 6.80894 2.199C7.48778 2.20131 8.15938 2.33864 8.78463 2.60299C9.40988 2.86735 9.9763 3.25344 10.4509 3.7388L11.9389 5.2423C12.011 5.31517 12.0968 5.37303 12.1914 5.41251C12.286 5.452 12.3874 5.47233 12.4899 5.47233C12.5924 5.47233 12.6939 5.452 12.7885 5.41251C12.8831 5.37303 12.9689 5.31517 13.041 5.2423L14.515 3.74965Z" fill="#2D2D2D"/>
</svg>
