<svg width="24" height="24" viewBox="0 0 24 24" fill="none" xmlns="http://www.w3.org/2000/svg">
<path d="M11.7292 14.583C18.1147 14.583 23.2917 16.9988 23.2917 19.9788V23.833H0.166656V19.9788C0.166656 16.9988 5.34357 14.583 11.7292 14.583ZM21.75 19.9788C21.75 17.8513 17.2637 16.1247 11.7292 16.1247C6.19457 16.1247 1.70832 17.8513 1.70832 19.9788V22.2913H21.75V19.9788ZM11.7292 0.708008C13.1602 0.708008 14.5327 1.2765 15.5446 2.28841C16.5565 3.30033 17.125 4.67278 17.125 6.10384C17.125 7.5349 16.5565 8.90736 15.5446 9.91927C14.5327 10.9312 13.1602 11.4997 11.7292 11.4997C10.2981 11.4997 8.92564 10.9312 7.91373 9.91927C6.90181 8.90736 6.33332 7.5349 6.33332 6.10384C6.33332 4.67278 6.90181 3.30033 7.91373 2.28841C8.92564 1.2765 10.2981 0.708008 11.7292 0.708008ZM11.7292 2.24967C10.707 2.24967 9.72665 2.65574 9.00385 3.37853C8.28105 4.10133 7.87499 5.08165 7.87499 6.10384C7.87499 7.12603 8.28105 8.10635 9.00385 8.82915C9.72665 9.55194 10.707 9.95801 11.7292 9.95801C12.7513 9.95801 13.7317 9.55194 14.4545 8.82915C15.1773 8.10635 15.5833 7.12603 15.5833 6.10384C15.5833 5.08165 15.1773 4.10133 14.4545 3.37853C13.7317 2.65574 12.7513 2.24967 11.7292 2.24967Z" fill="#2D2D2D"/>
</svg>
