<svg width="23" height="27" viewBox="0 0 23 27" fill="none" xmlns="http://www.w3.org/2000/svg">
<path d="M17.1389 8.66665V6.29026C17.1389 5.54975 16.993 4.81649 16.7097 4.13235C16.4263 3.44821 16.0109 2.82658 15.4873 2.30296C14.9637 1.77934 14.3421 1.36398 13.6579 1.0806C12.9738 0.797221 12.2405 0.651367 11.5 0.651367C10.7595 0.651367 10.0262 0.797221 9.3421 1.0806C8.65796 1.36398 8.03633 1.77934 7.51271 2.30296C6.98909 2.82658 6.57373 3.44821 6.29035 4.13235C6.00697 4.81649 5.86112 5.54975 5.86112 6.29026V11.9291C5.86112 12.1428 5.94599 12.3477 6.09706 12.4988C6.24813 12.6498 6.45303 12.7347 6.66667 12.7347C6.88032 12.7347 7.08522 12.6498 7.23629 12.4988C7.38736 12.3477 7.47223 12.1428 7.47223 11.9291V10.2778L16.3333 10.2778L15.7637 8.66665H7.47223V6.29026C7.47223 5.22202 7.89658 4.19754 8.65194 3.44219C9.40729 2.68683 10.4318 2.26248 11.5 2.26248C12.5682 2.26248 13.5927 2.68683 14.3481 3.44219C15.1034 4.19754 15.5278 5.22202 15.5278 6.29026V11.8889C15.5278 12.1025 15.6127 12.3074 15.7637 12.4585C15.9148 12.6096 16.1197 12.6944 16.3333 12.6944C16.547 12.6944 16.7519 12.6096 16.903 12.4585C17.054 12.3074 17.1389 12.1025 17.1389 11.8889V10.2778H21.1667V24.7778H1.83334V10.2778H6.09706V8.66665H0.222229V24.8503C0.222229 25.2583 0.384332 25.6497 0.672878 25.9382C0.961423 26.2268 1.35278 26.3889 1.76084 26.3889H21.2392C21.6472 26.3889 22.0386 26.2268 22.3271 25.9382C22.6157 25.6497 22.7778 25.2583 22.7778 24.8503V8.66665H17.1389Z" fill="#2D2D2D"/>
</svg>
