<svg width="16" height="16" viewBox="0 0 16 16" fill="none" xmlns="http://www.w3.org/2000/svg">
<g clip-path="url(#clip0_294_4127)">
<path d="M12.0619 15.1112H3.93751C3.76648 15.1072 3.59793 15.0695 3.44148 15.0003C3.28502 14.9311 3.14374 14.8317 3.0257 14.7079C2.90765 14.5841 2.81517 14.4382 2.75352 14.2786C2.69186 14.1191 2.66226 13.9489 2.6664 13.7779V4.99121H3.55528V13.7779C3.55104 13.8322 3.55758 13.8868 3.57452 13.9386C3.59145 13.9904 3.61846 14.0383 3.65398 14.0796C3.6895 14.1209 3.73284 14.1548 3.78149 14.1793C3.83015 14.2037 3.88317 14.2184 3.93751 14.2223H12.0619C12.1163 14.2184 12.1693 14.2037 12.218 14.1793C12.2666 14.1548 12.31 14.1209 12.3455 14.0796C12.381 14.0383 12.408 13.9904 12.4249 13.9386C12.4419 13.8868 12.4484 13.8322 12.4442 13.7779V4.99121H13.3331V13.7779C13.3372 13.9489 13.3076 14.1191 13.2459 14.2786C13.1843 14.4382 13.0918 14.5841 12.9738 14.7079C12.8557 14.8317 12.7144 14.9311 12.558 15.0003C12.4015 15.0695 12.233 15.1072 12.0619 15.1112Z" fill="#6F6F6F"/>
<path d="M13.6796 4.00022H2.22179C2.10391 4.00022 1.99087 3.95339 1.90752 3.87004C1.82417 3.78669 1.77734 3.67365 1.77734 3.55577C1.77734 3.4379 1.82417 3.32485 1.90752 3.2415C1.99087 3.15815 2.10391 3.11133 2.22179 3.11133H13.6796C13.7974 3.11133 13.9105 3.15815 13.9938 3.2415C14.0772 3.32485 14.124 3.4379 14.124 3.55577C14.124 3.67365 14.0772 3.78669 13.9938 3.87004C13.9105 3.95339 13.7974 4.00022 13.6796 4.00022Z" fill="#6F6F6F"/>
<path d="M9.33301 5.77734H10.2219V12.444H9.33301V5.77734Z" fill="#6F6F6F"/>
<path d="M5.77734 5.77734H6.66623V12.444H5.77734V5.77734Z" fill="#6F6F6F"/>
<path d="M10.2218 2.60423H9.37735V1.77756H6.62179V2.60423H5.77734V1.77756C5.77706 1.54931 5.86458 1.32971 6.02179 1.16423C6.17899 0.998749 6.39383 0.900084 6.62179 0.888672H9.37735C9.60531 0.900084 9.82014 0.998749 9.97735 1.16423C10.1346 1.32971 10.2221 1.54931 10.2218 1.77756V2.60423Z" fill="#6F6F6F"/>
</g>
<defs>
<clipPath id="clip0_294_4127">
<rect width="16" height="16" fill="white"/>
</clipPath>
</defs>
</svg>
