<svg width="8" height="14" viewBox="0 0 8 14" fill="none" xmlns="http://www.w3.org/2000/svg">
<path d="M6.7121 0.722498L0.882351 6.82879C0.779961 6.93604 0.722656 7.07989 0.722656 7.22967C0.722656 7.37945 0.779961 7.5233 0.882351 7.63055L6.7121 13.7391C6.7598 13.7892 6.81682 13.8289 6.87981 13.8561C6.9428 13.8832 7.01048 13.8972 7.07885 13.8972C7.14722 13.8972 7.2149 13.8832 7.27789 13.8561C7.34088 13.8289 7.39791 13.7892 7.4456 13.7391C7.54373 13.6366 7.59866 13.4989 7.59866 13.3555C7.59866 13.2121 7.54373 13.0744 7.4456 12.9718L1.96348 7.22967L7.4456 1.48866C7.54339 1.38613 7.59811 1.24868 7.59811 1.10558C7.59811 0.96247 7.54339 0.825018 7.4456 0.722498C7.39791 0.672481 7.34088 0.632727 7.27789 0.605583C7.2149 0.578438 7.14722 0.564453 7.07885 0.564453C7.01048 0.564453 6.9428 0.578438 6.87981 0.605583C6.81682 0.632727 6.7598 0.672481 6.7121 0.722498Z" fill="#2D2D2D" fill-opacity="0.69"/>
</svg>
