<svg width="8" height="14" viewBox="0 0 8 14" fill="none" xmlns="http://www.w3.org/2000/svg">
<path d="M1.2879 13.6974L7.11765 7.59114C7.22004 7.48388 7.27734 7.34003 7.27734 7.19025C7.27734 7.04048 7.22004 6.89663 7.11765 6.78937L1.2879 0.680785C1.2402 0.630769 1.18318 0.591015 1.12019 0.56387C1.0572 0.536726 0.98952 0.522741 0.921149 0.522741C0.852779 0.522741 0.7851 0.536726 0.72211 0.56387C0.65912 0.591015 0.602095 0.630769 0.554399 0.680785C0.456274 0.783359 0.40134 0.921055 0.40134 1.06444C0.40134 1.20782 0.456274 1.34552 0.554399 1.44809L6.03652 7.19025L0.554399 12.9313C0.456611 13.0338 0.401889 13.1712 0.401889 13.3143C0.401889 13.4575 0.456611 13.5949 0.554399 13.6974C0.602095 13.7474 0.65912 13.7872 0.72211 13.8143C0.7851 13.8415 0.852779 13.8555 0.921149 13.8555C0.98952 13.8555 1.0572 13.8415 1.12019 13.8143C1.18318 13.7872 1.2402 13.7474 1.2879 13.6974Z" fill="#2D2D2D" fill-opacity="0.69"/>
</svg>
