<svg width="14" height="8" viewBox="0 0 14 8" fill="none" xmlns="http://www.w3.org/2000/svg">
<path d="M0.625492 1.44124L6.60599 7.39359C6.71104 7.49813 6.85192 7.55664 6.99862 7.55664C7.14531 7.55664 7.28619 7.49813 7.39124 7.39359L13.374 1.44124C13.423 1.39254 13.4619 1.33431 13.4885 1.27C13.5151 1.20568 13.5288 1.13658 13.5288 1.06678C13.5288 0.996967 13.5151 0.927866 13.4885 0.863551C13.4619 0.799236 13.423 0.741011 13.374 0.692313C13.2735 0.592124 13.1387 0.536034 12.9982 0.536034C12.8578 0.536034 12.7229 0.592124 12.6225 0.692313L6.99862 6.28973L1.37587 0.692313C1.27546 0.592467 1.14084 0.536595 1.00068 0.536595C0.860521 0.536595 0.7259 0.592467 0.625492 0.692313C0.576506 0.741011 0.537571 0.799236 0.510985 0.863551C0.4844 0.927866 0.470703 0.996967 0.470703 1.06678C0.470703 1.13658 0.4844 1.20568 0.510985 1.27C0.537571 1.33431 0.576506 1.39254 0.625492 1.44124Z" fill="#6F6F6F"/>
</svg>
