<svg width="22" height="19" viewBox="0 0 22 19" fill="none" xmlns="http://www.w3.org/2000/svg">
<path d="M11.6448 18.6824L19.7633 10.4872C20.8165 9.41219 21.4046 7.96604 21.4004 6.4611C21.3963 4.95617 20.8003 3.51326 19.7412 2.44408C19.2216 1.9141 18.6019 1.49273 17.918 1.20448C17.2341 0.916228 16.4997 0.766849 15.7575 0.765035C15.0154 0.76322 14.2802 0.909006 13.5949 1.19391C12.9096 1.47881 12.2878 1.89715 11.7657 2.42458L10.9909 3.20848L10.2044 2.41548C9.68555 1.8862 9.06666 1.46537 8.3837 1.17744C7.70075 0.889508 6.96736 0.740236 6.2262 0.7383C5.48503 0.736365 4.75088 0.881805 4.06643 1.16616C3.38198 1.45052 2.7609 1.86812 2.2393 2.39468C0.0448962 4.61118 0.0552963 8.21348 2.2601 10.4404L10.4202 18.6824C10.7582 19.0243 11.3068 19.0243 11.6448 18.6824ZM12.69 3.33848C13.0913 2.93337 13.5693 2.61218 14.096 2.39362C14.6226 2.17505 15.1876 2.06349 15.7578 2.06543C16.328 2.06736 16.8922 2.18276 17.4174 2.40489C17.9426 2.62703 18.4183 2.95146 18.8169 3.35928C19.6349 4.18523 20.0955 5.29957 20.0994 6.46202C20.1033 7.62447 19.6501 8.74188 18.8377 9.57328V9.57588L11.0325 17.4539L3.1831 9.52518C1.4762 7.80138 1.4749 5.01418 3.1636 3.30858C3.56441 2.90422 4.04166 2.58364 4.56756 2.36549C5.09346 2.14735 5.65751 2.036 6.22685 2.03794C6.7962 2.03987 7.35947 2.15505 7.88388 2.37677C8.40828 2.59848 8.88334 2.9223 9.2814 3.32938L10.5294 4.59038C10.5898 4.6515 10.6618 4.70002 10.7411 4.73314C10.8205 4.76625 10.9056 4.7833 10.9915 4.7833C11.0775 4.7833 11.1626 4.76625 11.2419 4.73314C11.3213 4.70002 11.3932 4.6515 11.4537 4.59038L12.69 3.33848Z" fill="white"/>
</svg>
