<svg width="21" height="18" viewBox="0 0 21 18" fill="none" xmlns="http://www.w3.org/2000/svg">
<path d="M10.3379 17.4355L10.338 17.4355L10.3315 17.4292L3.01903 10.3745L3.00234 10.3584L2.98422 10.3439C2.93119 10.3015 2.84129 10.2181 2.70811 10.0811C2.59001 9.95968 2.38659 9.72093 2.08965 9.34976C1.80617 8.99541 1.55346 8.6329 1.33109 8.26228C1.12011 7.91065 0.925156 7.47345 0.750066 6.94445C0.581317 6.43462 0.5 5.94861 0.5 5.48438C0.5 3.86602 0.963806 2.66402 1.83758 1.81088C2.71351 0.955645 3.94622 0.5 5.60156 0.5C6.02726 0.5 6.46805 0.573687 6.92587 0.726295C7.38959 0.880867 7.81901 1.08864 8.2155 1.34939C8.63971 1.62838 8.99956 1.88684 9.29703 2.12481C9.59521 2.36336 9.87832 2.61668 10.1464 2.8848L10.5 3.23836L10.8536 2.8848C11.1217 2.61668 11.4048 2.36336 11.703 2.12481C12.0004 1.88684 12.3603 1.62838 12.7845 1.34939C13.181 1.08864 13.6104 0.880867 14.0741 0.726295C14.532 0.573687 14.9727 0.5 15.3984 0.5C17.0538 0.5 18.2865 0.955645 19.1624 1.81088C20.0362 2.66402 20.5 3.86602 20.5 5.48438C20.5 7.0264 19.7027 8.66337 17.9662 10.401L10.6688 17.4289L10.6687 17.4289L10.6621 17.4355C10.6174 17.4801 10.5737 17.5 10.5 17.5C10.4263 17.5 10.3826 17.4801 10.3379 17.4355Z" fill="white" stroke="#2D2D2D"/>
</svg>
