<svg width="14" height="8" viewBox="0 0 14 8" fill="none" xmlns="http://www.w3.org/2000/svg">
<path d="M0.625492 1.82893L6.60599 7.78128C6.71104 7.88583 6.85192 7.94434 6.99862 7.94434C7.14531 7.94434 7.28619 7.88583 7.39124 7.78128L13.374 1.82893C13.423 1.78023 13.4619 1.72201 13.4885 1.65769C13.5151 1.59338 13.5288 1.52428 13.5288 1.45447C13.5288 1.38466 13.5151 1.31556 13.4885 1.25125C13.4619 1.18693 13.423 1.12871 13.374 1.08001C13.2735 0.979819 13.1387 0.923729 12.9982 0.923729C12.8578 0.923729 12.7229 0.979819 12.6225 1.08001L6.99862 6.67742L1.37587 1.08001C1.27546 0.980163 1.14084 0.92429 1.00068 0.92429C0.860521 0.92429 0.7259 0.980163 0.625492 1.08001C0.576506 1.12871 0.537571 1.18693 0.510985 1.25125C0.4844 1.31556 0.470703 1.38466 0.470703 1.45447C0.470703 1.52428 0.4844 1.59338 0.510985 1.65769C0.537571 1.72201 0.576506 1.78023 0.625492 1.82893Z" fill="#6F6F6F"/>
</svg>
